<?xml version="1.0" encoding="iso-8859-1"?>
<!-- Generator: Adobe Illustrator 19.0.0, SVG Export Plug-In . SVG Version: 6.00 Build 0)  -->
<svg width="23" height="26" version="1.1" id="Layer_1" xmlns="http://www.w3.org/2000/svg" xmlns:xlink="http://www.w3.org/1999/xlink" x="0px" y="0px"
	 viewBox="0 0 512 512" style="enable-background:new 0 0 512 512;" xml:space="preserve">
<g>
	<g>
		<path d="M495.266,0c-10.277,0-315.571,0-333.86,0c-13.373,0-25.949,5.21-35.408,14.671L25.84,114.829
			c-19.575,19.574-19.578,51.241,0,70.817c19.574,19.575,51.241,19.578,70.817,0l51.24-51.24
			c7.127,18.979,25.456,32.524,46.895,32.524h43.027c7.391,0,17.942,1.286,26.235,7.417c42.825,31.654,102.116,34.275,147.747,9.069
			v33.593c0,9.219,7.474,16.693,16.693,16.693h66.772c9.219,0,16.693-7.474,16.693-16.693V16.693C511.959,7.474,504.485,0,495.266,0
			z M411.8,142.932c-34.583,29.778-90.487,32.222-127.903,4.567c-12.352-9.13-28.286-13.955-46.079-13.955h-43.027
			c-9.205,0-16.693-7.488-16.693-16.693s7.489-16.693,16.693-16.693c1.777,0,131.799,0,133.544,0
			c9.219,0,16.693-7.474,16.693-16.693s-7.474-16.693-16.693-16.693c-3.491,0-149.84,0-153.106,0c-4.427,0-8.673,1.759-11.803,4.89
			l-90.377,90.377c-6.508,6.507-17.095,6.507-23.603,0c-6.527-6.528-6.528-17.074,0-23.603L149.604,38.278
			c3.108-3.108,7.411-4.892,11.801-4.892H411.8V142.932z M478.573,200.316h-33.386V33.386h33.386V200.316z"/>
	</g>
</g>
<g>
	<g>
		<path d="M495.266,328.377h-27.908c-49.613,0-100.011,16.829-149.796,50.018c-33.556,22.372-89.587,22.36-123.125,0
			c-49.784-33.19-100.183-50.018-149.795-50.018H16.734c-9.219,0-16.693,7.474-16.693,16.693v150.237
			c0,9.219,7.474,16.693,16.693,16.693h478.533c9.219,0,16.693-7.474,16.693-16.693V345.07
			C511.959,335.851,504.485,328.377,495.266,328.377z M478.573,478.614H33.427V361.763h11.215
			c42.904,0,87.072,14.942,131.276,44.411c44.727,29.818,115.407,29.839,160.164,0c44.204-29.469,88.372-44.411,131.276-44.411
			h11.215V478.614z"/>
	</g>
</g>
<g>
	<g>
		<circle cx="261.568" cy="250.473" r="16.693"/>
	</g>
</g>
<g>
	<g>
		<circle cx="328.34" cy="250.473" r="16.693"/>
	</g>
</g>
<g>
	<g>
		<circle cx="294.954" cy="317.245" r="16.693"/>
	</g>
</g>
<g>
	<g>
		<circle cx="194.796" cy="250.473" r="16.693"/>
	</g>
</g>
<g>
	<g>
		<circle cx="228.182" cy="317.245" r="16.693"/>
	</g>
</g>
<g>
</g>
<g>
</g>
<g>
</g>
<g>
</g>
<g>
</g>
<g>
</g>
<g>
</g>
<g>
</g>
<g>
</g>
<g>
</g>
<g>
</g>
<g>
</g>
<g>
</g>
<g>
</g>
<g>
</g>
</svg>
