<?xml version="1.0" encoding="iso-8859-1"?>
<!-- Generator: Adobe Illustrator 19.0.0, SVG Export Plug-In . SVG Version: 6.00 Build 0)  -->
<svg width="87" height="80" version="1.1" id="Layer_1" xmlns="http://www.w3.org/2000/svg" xmlns:xlink="http://www.w3.org/1999/xlink" x="0px" y="0px"
	 viewBox="0 0 512 512" style="enable-background:new 0 0 512 512;" xml:space="preserve">
<rect x="119.467" y="452.267" style="fill:#FD5E95;" width="264.533" height="34.133"/>
<rect x="162.133" y="264.533" style="fill:#7DBB34;" width="187.733" height="162.133"/>
<rect x="162.133" y="264.533" style="fill:#60A333;" width="17.067" height="162.133"/>
<rect x="264.533" y="281.6" style="fill:#A6DE64;" width="25.6" height="145.067"/>
<rect x="162.133" y="264.533" style="fill:#60A333;" width="187.733" height="25.6"/>
<path style="fill:#A6DE64;" d="M375.467,273.067H136.533c-4.713,0-8.533-3.821-8.533-8.533v-68.267c0-4.713,3.821-8.533,8.533-8.533
	h238.933c4.713,0,8.533,3.821,8.533,8.533v68.267C384,269.246,380.179,273.067,375.467,273.067z"/>
<path style="fill:#60A333;" d="M136.533,187.733c-4.713,0-8.533,3.821-8.533,8.533v68.267c0,4.713,3.821,8.533,8.533,8.533h8.533
	v-85.333H136.533z"/>
<g>
	<rect x="145.067" y="187.733" style="fill:#7DBB34;" width="128.352" height="85.333"/>
	<path style="fill:#7DBB34;" d="M375.467,187.733h-76.8v85.333h76.8c4.713,0,8.533-3.821,8.533-8.533v-68.267
		C384,191.554,380.179,187.733,375.467,187.733z"/>
</g>
<path style="fill:#FD5E95;" d="M145.067,512H59.733c-4.713,0-8.533-3.821-8.533-8.533v-34.133c0-4.713,3.821-8.533,8.533-8.533
	h85.333c4.713,0,8.533,3.821,8.533,8.533v34.133C153.6,508.179,149.779,512,145.067,512z"/>
<path style="fill:#D14D7B;" d="M70.4,494.933c-1.178,0-2.133-0.956-2.133-2.133v-32h-8.533c-4.713,0-8.533,3.821-8.533,8.533v34.133
	c0,4.713,3.821,8.533,8.533,8.533h85.333c4.713,0,8.533-3.821,8.533-8.533v-8.533H70.4z"/>
<path style="fill:#FD5E95;" d="M247.467,512h-85.333c-4.713,0-8.533-3.821-8.533-8.533v-34.133c0-4.713,3.821-8.533,8.533-8.533
	h85.333c4.713,0,8.533,3.821,8.533,8.533v34.133C256,508.179,252.179,512,247.467,512z"/>
<path style="fill:#D14D7B;" d="M172.8,494.933c-1.178,0-2.133-0.956-2.133-2.133v-32h-8.533c-4.713,0-8.533,3.821-8.533,8.533
	v34.133c0,4.713,3.821,8.533,8.533,8.533h85.333c4.713,0,8.533-3.821,8.533-8.533v-8.533H172.8z"/>
<path style="fill:#FD5E95;" d="M349.867,512h-85.333c-4.713,0-8.533-3.821-8.533-8.533v-34.133c0-4.713,3.821-8.533,8.533-8.533
	h85.333c4.713,0,8.533,3.821,8.533,8.533v34.133C358.4,508.179,354.579,512,349.867,512z"/>
<path style="fill:#D14D7B;" d="M275.2,494.933c-1.178,0-2.133-0.956-2.133-2.133v-32h-8.533c-4.713,0-8.533,3.821-8.533,8.533
	v34.133c0,4.713,3.821,8.533,8.533,8.533h85.333c4.713,0,8.533-3.821,8.533-8.533v-8.533H275.2z"/>
<path style="fill:#FD5E95;" d="M452.267,512h-85.333c-4.713,0-8.533-3.821-8.533-8.533v-34.133c0-4.713,3.821-8.533,8.533-8.533
	h85.333c4.713,0,8.533,3.821,8.533,8.533v34.133C460.8,508.179,456.979,512,452.267,512z"/>
<path style="fill:#D14D7B;" d="M377.6,494.933c-1.178,0-2.133-0.956-2.133-2.133v-32h-8.533c-4.713,0-8.533,3.821-8.533,8.533
	v34.133c0,4.713,3.821,8.533,8.533,8.533h85.333c4.713,0,8.533-3.821,8.533-8.533v-8.533H377.6z"/>
<path style="fill:#FD5E95;" d="M196.267,460.8h-85.333c-4.713,0-8.533-3.821-8.533-8.533v-34.133c0-4.713,3.821-8.533,8.533-8.533
	h85.333c4.713,0,8.533,3.821,8.533,8.533v34.133C204.8,456.979,200.979,460.8,196.267,460.8z"/>
<path style="fill:#D14D7B;" d="M121.6,443.733c-1.178,0-2.133-0.956-2.133-2.133v-32h-8.533c-4.713,0-8.533,3.821-8.533,8.533
	v34.133c0,4.713,3.821,8.533,8.533,8.533h85.333c4.713,0,8.533-3.821,8.533-8.533v-8.533H121.6z"/>
<path style="fill:#FD5E95;" d="M298.667,460.8h-85.333c-4.713,0-8.533-3.821-8.533-8.533v-34.133c0-4.713,3.821-8.533,8.533-8.533
	h85.333c4.713,0,8.533,3.821,8.533,8.533v34.133C307.2,456.979,303.379,460.8,298.667,460.8z"/>
<path style="fill:#D14D7B;" d="M224,443.733c-1.178,0-2.133-0.956-2.133-2.133v-32h-8.533c-4.713,0-8.533,3.821-8.533,8.533v34.133
	c0,4.713,3.821,8.533,8.533,8.533h85.333c4.713,0,8.533-3.821,8.533-8.533v-8.533H224z"/>
<path style="fill:#FD5E95;" d="M401.067,460.8h-85.333c-4.713,0-8.533-3.821-8.533-8.533v-34.133c0-4.713,3.821-8.533,8.533-8.533
	h85.333c4.713,0,8.533,3.821,8.533,8.533v34.133C409.6,456.979,405.779,460.8,401.067,460.8z"/>
<path style="fill:#D14D7B;" d="M326.4,443.733c-1.178,0-2.133-0.956-2.133-2.133v-32h-8.533c-4.713,0-8.533,3.821-8.533,8.533
	v34.133c0,4.713,3.821,8.533,8.533,8.533h85.333c4.713,0,8.533-3.821,8.533-8.533v-8.533H326.4z"/>
<path style="fill:#FFE88A;" d="M281.6,0h-51.2v170.667h51.2c23.564,0,42.667-38.205,42.667-85.333S305.164,0,281.6,0z"/>
<path style="fill:#FFF1B5;" d="M230.4,102.4h93.011c0.56-5.515,0.855-11.221,0.855-17.067s-0.295-11.552-0.855-17.067H230.4V102.4z"
	/>
<ellipse style="fill:#F9D84E;" cx="230.4" cy="85.333" rx="42.667" ry="85.333"/>
<path style="fill:#EB9617;" d="M238.933,76.8H230.4v-8.533h8.533c4.713,0,8.533-3.821,8.533-8.533s-3.821-8.533-8.533-8.533v-8.533
	c0-4.713-3.821-8.533-8.533-8.533c-4.713,0-8.533,3.821-8.533,8.533V51.2c-4.713,0-8.533,3.821-8.533,8.533v25.6
	c0,4.713,3.821,8.533,8.533,8.533h8.533v8.533h-8.533c-4.713,0-8.533,3.821-8.533,8.533s3.821,8.533,8.533,8.533V128
	c0,4.713,3.821,8.533,8.533,8.533c4.713,0,8.533-3.821,8.533-8.533v-8.533c4.713,0,8.533-3.821,8.533-8.533v-25.6
	C247.467,80.621,243.646,76.8,238.933,76.8z"/>
<g>
</g>
<g>
</g>
<g>
</g>
<g>
</g>
<g>
</g>
<g>
</g>
<g>
</g>
<g>
</g>
<g>
</g>
<g>
</g>
<g>
</g>
<g>
</g>
<g>
</g>
<g>
</g>
<g>
</g>
</svg>
