<?xml version="1.0" encoding="iso-8859-1"?>
<!-- Generator: Adobe Illustrator 19.0.0, SVG Export Plug-In . SVG Version: 6.00 Build 0)  -->
<svg width="87" height="80" version="1.1" id="Layer_1" xmlns="http://www.w3.org/2000/svg" xmlns:xlink="http://www.w3.org/1999/xlink" x="0px" y="0px"
	 viewBox="0 0 512 512" style="enable-background:new 0 0 512 512;" xml:space="preserve">
<path style="fill:#66BF00;" d="M129.459,176.739c-2.364,0.844-4.239,2.719-5.083,5.083c-8.592,24.068-3.266,51.99,16.005,71.263
	c19.271,19.271,47.194,24.597,71.263,16.005c2.364-0.844,4.239-2.719,5.083-5.083c8.592-24.068,3.266-51.99-16.005-71.263
	C181.449,173.473,153.527,168.147,129.459,176.739z"/>
<g>
	<path style="fill:#58AB23;" d="M147.868,244.55c-18.484-18.485-24.13-44.926-16.979-68.293c-0.477,0.158-0.955,0.313-1.429,0.482
		c-2.364,0.844-4.239,2.719-5.083,5.083c-8.592,24.068-3.266,51.99,16.005,71.263c19.271,19.271,47.194,24.597,71.263,16.005
		c2.364-0.844,4.239-2.719,5.083-5.083c0.351-0.982,0.67-1.974,0.974-2.969C193.963,268.923,166.759,263.443,147.868,244.55z"/>
	<path style="fill:#58AB23;" d="M261.919,301.166L135.623,174.871c-2.077,0.527-4.135,1.143-6.164,1.868
		c-2.364,0.844-4.239,2.719-5.083,5.083c-0.531,1.488-1.008,2.991-1.433,4.505l126.908,126.908c1.666,1.666,3.85,2.499,6.034,2.499
		c2.185,0,4.368-0.833,6.034-2.499C265.251,309.902,265.251,304.498,261.919,301.166z"/>
</g>
<path style="fill:#66BF00;" d="M259.478,74.353c-2.269-1.075-4.919-1.075-7.188,0c-23.094,10.944-39.073,34.453-39.073,61.708
	s15.979,50.764,39.073,61.708c2.269,1.075,4.919,1.075,7.188,0c23.094-10.944,39.073-34.453,39.073-61.708
	C298.551,108.807,282.573,85.297,259.478,74.353z"/>
<g>
	<path style="fill:#58AB23;" d="M259.478,183.955c-2.269,1.075-4.919,1.075-7.188,0c-21.118-10.007-36.277-30.524-38.719-54.801
		c-0.228,2.272-0.354,4.575-0.354,6.907c0,27.254,15.979,50.764,39.073,61.708c2.269,1.075,4.919,1.075,7.188,0
		c23.094-10.944,39.073-34.453,39.073-61.708c0-2.333-0.126-4.635-0.354-6.907C295.756,153.43,280.596,173.948,259.478,183.955z"/>
	<path style="fill:#58AB23;" d="M259.478,74.353c-2.269-1.075-4.919-1.075-7.188,0c-1.427,0.676-2.828,1.402-4.198,2.172V332.8
		c0,2.356,0.955,4.49,2.499,6.034c1.545,1.545,3.678,2.499,6.034,2.499c4.713,0,8.533-3.82,8.533-8.533V77.392
		C263.317,76.295,261.426,75.277,259.478,74.353z"/>
</g>
<path style="fill:#66BF00;" d="M382.31,176.739c2.364,0.844,4.239,2.719,5.083,5.083c8.592,24.068,3.266,51.99-16.005,71.263
	c-19.271,19.271-47.194,24.597-71.263,16.005c-2.364-0.844-4.239-2.719-5.083-5.083c-8.592-24.068-3.266-51.99,16.005-71.263
	C330.32,173.473,358.242,168.147,382.31,176.739z"/>
<g>
	<path style="fill:#58AB23;" d="M363.902,244.55c18.484-18.485,24.13-44.926,16.979-68.293c0.477,0.158,0.955,0.313,1.429,0.482
		c2.364,0.844,4.239,2.719,5.083,5.083c8.592,24.068,3.266,51.99-16.005,71.263c-19.271,19.271-47.194,24.597-71.263,16.005
		c-2.364-0.844-4.239-2.719-5.083-5.083c-0.351-0.982-0.67-1.974-0.974-2.969C317.807,268.923,345.01,263.443,363.902,244.55z"/>
	<path style="fill:#58AB23;" d="M387.393,181.822c-0.844-2.364-2.719-4.239-5.083-5.083c-2.03-0.724-4.087-1.342-6.164-1.868
		L249.851,301.166c-3.333,3.332-3.333,8.735,0,12.067c1.666,1.666,3.85,2.499,6.034,2.499c2.185,0,4.368-0.833,6.034-2.499
		l126.908-126.908C388.401,184.812,387.924,183.309,387.393,181.822z"/>
</g>
<path id="SVGCleanerId_0" style="fill:#72CCC5;" d="M426.551,324.267H85.218c-4.713,0-8.533,3.821-8.533,8.533
	c0,98.812,80.388,179.2,179.2,179.2s179.2-80.388,179.2-179.2C435.085,328.087,431.264,324.267,426.551,324.267z"/>
<g>
	<path id="SVGCleanerId_0_1_" style="fill:#72CCC5;" d="M426.551,324.267H85.218c-4.713,0-8.533,3.821-8.533,8.533
		c0,98.812,80.388,179.2,179.2,179.2s179.2-80.388,179.2-179.2C435.085,328.087,431.264,324.267,426.551,324.267z"/>
</g>
<path style="fill:#11BBA3;" d="M119.351,332.8c0-4.713,3.821-8.533,8.533-8.533H85.218c-4.713,0-8.533,3.821-8.533,8.533
	c0,98.812,80.388,179.2,179.2,179.2c7.219,0,14.335-0.442,21.333-1.275C188.427,500.144,119.351,424.393,119.351,332.8z"/>
<g>
	<path style="fill:#66BF00;" d="M425.902,329.534c-1.321-3.188-4.432-5.267-7.884-5.267H281.485c-5.461,0-9.603,5.301-8.278,10.603
		l8.533,34.133c0.8,3.199,3.372,5.651,6.605,6.298l35.807,7.162V409.6c0,0.917,0.148,1.828,0.438,2.699l8.533,25.6
		c1.47,4.411,6.378,6.869,10.794,5.397l25.6-8.533c2.147-0.716,3.922-2.255,4.933-4.279l17.067-34.133
		c0.593-1.185,0.901-2.491,0.901-3.817v-22.066l31.634-31.634C426.493,336.394,427.222,332.723,425.902,329.534z"/>
	<path style="fill:#66BF00;" d="M241.517,358.838l-23.689-7.897l-24.176-24.176c-1.6-1.6-3.771-2.499-6.034-2.499h-102.4
		c-4.713,0-8.533,3.821-8.533,8.533c0,82.309,55.689,153.779,135.425,173.803c4.389,1.103,9.003-1.546,10.269-5.888
		c0.807-2.769-0.161-5.346-0.916-7.989l-7.041-28.161l20.596-13.731c1.766-1.178,3.03-2.971,3.546-5.03l8.533-34.133
		c0.17-0.677,0.255-1.372,0.255-2.069v-42.667C247.351,363.261,245,360,241.517,358.838z"/>
</g>
<path style="fill:#58AB23;" d="M119.351,332.8c0-4.713,3.821-8.533,8.533-8.533H85.218c-4.713,0-8.533,3.821-8.533,8.533
	c0,82.309,55.689,153.779,135.425,173.803c4.389,1.103,9.003-1.546,10.269-5.888c0.592-2.029,0.228-3.954-0.304-5.878
	C161.411,466.091,119.351,404.269,119.351,332.8z"/>
<path style="fill:#F4F3EC;" d="M42.551,93.867c13.405,0,25.359,6.187,33.181,15.854c9.013-14.63,25.174-24.387,43.619-24.387
	c26.717,0,48.655,20.464,50.994,46.572c0.223,2.489-1.76,4.628-4.258,4.628H4.392c-2.527,0-4.527-2.188-4.252-4.7
	C2.48,110.481,20.576,93.867,42.551,93.867z"/>
<path style="fill:#E8E6D9;" d="M167.625,119.467c1.396,3.948,2.332,8.113,2.719,12.438c0.223,2.489-1.76,4.628-4.258,4.628H4.392
	c-2.527,0-4.527-2.188-4.252-4.7c0.477-4.355,1.619-8.507,3.307-12.367H167.625z"/>
<path style="fill:#F4F3EC;" d="M119.54,8.533c13.405,0,25.359,6.187,33.181,15.854C161.734,9.757,177.895,0,196.34,0
	c26.717,0,48.655,20.464,50.994,46.572c0.223,2.489-1.76,4.628-4.258,4.628H81.382c-2.527,0-4.527-2.188-4.252-4.7
	C79.47,25.148,97.565,8.533,119.54,8.533z"/>
<path style="fill:#E8E6D9;" d="M244.615,34.133c1.396,3.948,2.332,8.113,2.719,12.438c0.223,2.489-1.76,4.628-4.258,4.628H81.382
	c-2.527,0-4.527-2.188-4.252-4.7c0.477-4.355,1.619-8.507,3.307-12.367H244.615z"/>
<circle style="fill:#FC9C47;" cx="435.083" cy="76.8" r="42.667"/>
<circle style="fill:#FFC552;" cx="435.083" cy="76.8" r="25.6"/>
<g>
	<path style="fill:#FFE5BA;" d="M435.085,25.6c-4.713,0-8.533-3.821-8.533-8.533V8.533c0-4.713,3.821-8.533,8.533-8.533
		c4.713,0,8.533,3.821,8.533,8.533v8.533C443.618,21.779,439.797,25.6,435.085,25.6z"/>
	<path style="fill:#FFE5BA;" d="M464.944,33.604c-1.447,0-2.915-0.369-4.259-1.145c-4.081-2.356-5.479-7.575-3.123-11.657
		l4.267-7.39c2.356-4.082,7.575-5.481,11.657-3.123c4.081,2.356,5.479,7.575,3.123,11.657l-4.267,7.39
		C470.76,32.074,467.892,33.604,464.944,33.604z"/>
	<path style="fill:#FFE5BA;" d="M486.823,55.468c-2.949,0-5.818-1.531-7.398-4.268c-2.356-4.081-0.958-9.3,3.123-11.657l7.39-4.267
		c4.082-2.355,9.3-0.958,11.657,3.123s0.958,9.3-3.123,11.657l-7.39,4.267C489.739,55.099,488.271,55.468,486.823,55.468z"/>
	<path style="fill:#FFE5BA;" d="M503.351,85.333h-8.533c-4.713,0-8.533-3.821-8.533-8.533s3.821-8.533,8.533-8.533h8.533
		c4.713,0,8.533,3.821,8.533,8.533S508.064,85.333,503.351,85.333z"/>
	<path style="fill:#FFE5BA;" d="M494.197,119.468c-1.447,0-2.915-0.369-4.259-1.145l-7.39-4.267
		c-4.081-2.356-5.479-7.575-3.123-11.657c2.356-4.082,7.577-5.481,11.657-3.123l7.39,4.267c4.081,2.356,5.479,7.575,3.123,11.657
		C500.015,117.937,497.147,119.468,494.197,119.468z"/>
	<path style="fill:#FFE5BA;" d="M469.225,144.455c-2.949,0-5.818-1.531-7.398-4.268l-4.267-7.39
		c-2.356-4.081-0.958-9.3,3.123-11.657c4.081-2.355,9.3-0.958,11.657,3.123l4.267,7.39c2.356,4.081,0.958,9.3-3.123,11.657
		C472.141,144.086,470.674,144.455,469.225,144.455z"/>
	<path style="fill:#FFE5BA;" d="M435.085,153.6c-4.713,0-8.533-3.821-8.533-8.533v-8.533c0-4.713,3.821-8.533,8.533-8.533
		c4.713,0,8.533,3.821,8.533,8.533v8.533C443.618,149.779,439.797,153.6,435.085,153.6z"/>
	<path style="fill:#FFE5BA;" d="M400.944,144.455c-1.447,0-2.915-0.369-4.259-1.145c-4.081-2.356-5.479-7.575-3.123-11.657
		l4.267-7.39c2.356-4.082,7.575-5.481,11.657-3.123c4.081,2.356,5.479,7.575,3.123,11.657l-4.267,7.39
		C406.76,142.925,403.892,144.455,400.944,144.455z"/>
	<path style="fill:#FFE5BA;" d="M375.971,119.468c-2.949,0-5.818-1.531-7.398-4.268c-2.356-4.081-0.958-9.3,3.123-11.657l7.39-4.267
		c4.081-2.355,9.3-0.958,11.657,3.123c2.356,4.081,0.958,9.3-3.123,11.657l-7.39,4.267
		C378.886,119.099,377.42,119.468,375.971,119.468z"/>
	<path style="fill:#FFE5BA;" d="M375.351,85.333h-8.533c-4.713,0-8.533-3.821-8.533-8.533s3.821-8.533,8.533-8.533h8.533
		c4.713,0,8.533,3.821,8.533,8.533S380.064,85.333,375.351,85.333z"/>
	<path style="fill:#FFE5BA;" d="M383.346,55.468c-1.447,0-2.915-0.369-4.259-1.145l-7.39-4.267
		c-4.081-2.356-5.479-7.575-3.123-11.657c2.356-4.082,7.577-5.481,11.657-3.123l7.39,4.267c4.081,2.356,5.479,7.575,3.123,11.657
		C389.164,53.937,386.295,55.468,383.346,55.468z"/>
	<path style="fill:#FFE5BA;" d="M405.225,33.604c-2.949,0-5.818-1.531-7.398-4.268l-4.267-7.39c-2.356-4.081-0.958-9.3,3.123-11.657
		c4.081-2.355,9.3-0.958,11.657,3.123l4.267,7.39c2.356,4.081,0.958,9.3-3.123,11.657C408.141,33.235,406.674,33.604,405.225,33.604
		z"/>
</g>
<g>
</g>
<g>
</g>
<g>
</g>
<g>
</g>
<g>
</g>
<g>
</g>
<g>
</g>
<g>
</g>
<g>
</g>
<g>
</g>
<g>
</g>
<g>
</g>
<g>
</g>
<g>
</g>
<g>
</g>
</svg>
