<?xml version="1.0" encoding="utf-8"?>

<svg width="87" height="80" version="1.1" id="Icons" xmlns="http://www.w3.org/2000/svg" xmlns:xlink="http://www.w3.org/1999/xlink" x="0px" y="0px"
	 viewBox="0 0 32 32" style="enable-background:new 0 0 32 32;" xml:space="preserve">
<style type="text/css">
	.st0{fill:none;stroke:#000000;stroke-width:2;stroke-linecap:round;stroke-linejoin:round;stroke-miterlimit:10;}
</style>
<path class="st0" d="M17,4c-1.1,0-2.1,0.4-3,1H9C8.1,4.4,7.1,4,6,4C3.2,4,1,6.2,1,9s2.2,5,5,5c1.1,0,2.1-0.4,3-1H14
	c0.8,0.6,1.9,1,3,1c2.8,0,5-2.2,5-5S19.8,4,17,4z"/>
<line class="st0" x1="6" y1="7" x2="6" y2="11"/>
<line class="st0" x1="4" y1="9" x2="8" y2="9"/>
<line class="st0" x1="18" y1="8" x2="18" y2="8"/>
<line class="st0" x1="16" y1="10" x2="16" y2="10"/>
<path class="st0" d="M26,18c-1.1,0-2.1,0.4-3,1H18c-0.8-0.6-1.9-1-3-1c-2.8,0-5,2.2-5,5s2.2,5,5,5c1.1,0,2.1-0.4,3-1H23
	c0.8,0.6,1.9,1,3,1c2.8,0,5-2.2,5-5S28.8,18,26,18z"/>
<line class="st0" x1="15" y1="21" x2="15" y2="25"/>
<line class="st0" x1="13" y1="23" x2="17" y2="23"/>
<line class="st0" x1="27" y1="22" x2="27" y2="22"/>
<line class="st0" x1="25" y1="24" x2="25" y2="24"/>
</svg>
